<mxfile host="app.diagrams.net" modified="2021-01-22T13:34:52.013Z" agent="5.0 (Windows NT 10.0; Win64; x64) AppleWebKit/537.36 (KHTML, like Gecko) Chrome/87.0.4280.141 Safari/537.36 OPR/73.0.3856.344" etag="h9kTQqbayu7PodxTd4Pc" version="14.2.6" type="github">
  <diagram id="TD2ZySn2Q-9oDkGfq1TC" name="Page-1">
    <mxGraphModel dx="1985" dy="1777" grid="1" gridSize="10" guides="1" tooltips="1" connect="1" arrows="1" fold="1" page="1" pageScale="1" pageWidth="827" pageHeight="1169" math="0" shadow="0">
      <root>
        <mxCell id="0" />
        <mxCell id="1" parent="0" />
        <mxCell id="EHAL_HRxOUWWnRyOiAYp-31" value="" style="edgeStyle=orthogonalEdgeStyle;rounded=0;orthogonalLoop=1;jettySize=auto;html=1;" parent="1" source="EHAL_HRxOUWWnRyOiAYp-1" target="EHAL_HRxOUWWnRyOiAYp-30" edge="1">
          <mxGeometry relative="1" as="geometry" />
        </mxCell>
        <mxCell id="EHAL_HRxOUWWnRyOiAYp-36" value="" style="edgeStyle=orthogonalEdgeStyle;rounded=0;orthogonalLoop=1;jettySize=auto;html=1;" parent="1" source="EHAL_HRxOUWWnRyOiAYp-1" target="EHAL_HRxOUWWnRyOiAYp-35" edge="1">
          <mxGeometry relative="1" as="geometry" />
        </mxCell>
        <mxCell id="EHAL_HRxOUWWnRyOiAYp-1" value="Klient" style="shape=umlActor;verticalLabelPosition=bottom;verticalAlign=top;html=1;outlineConnect=0;" parent="1" vertex="1">
          <mxGeometry x="60" y="120" width="30" height="60" as="geometry" />
        </mxCell>
        <mxCell id="EHAL_HRxOUWWnRyOiAYp-13" value="" style="edgeStyle=orthogonalEdgeStyle;rounded=0;orthogonalLoop=1;jettySize=auto;html=1;" parent="1" source="EHAL_HRxOUWWnRyOiAYp-9" target="EHAL_HRxOUWWnRyOiAYp-12" edge="1">
          <mxGeometry relative="1" as="geometry" />
        </mxCell>
        <mxCell id="EHAL_HRxOUWWnRyOiAYp-21" value="" style="edgeStyle=orthogonalEdgeStyle;rounded=0;orthogonalLoop=1;jettySize=auto;html=1;" parent="1" source="EHAL_HRxOUWWnRyOiAYp-9" target="EHAL_HRxOUWWnRyOiAYp-20" edge="1">
          <mxGeometry relative="1" as="geometry" />
        </mxCell>
        <mxCell id="EHAL_HRxOUWWnRyOiAYp-9" value="Przegląd samochodów używanych w ofercie salonu" style="ellipse;whiteSpace=wrap;html=1;verticalAlign=top;" parent="1" vertex="1">
          <mxGeometry x="205" y="-60" width="120" height="80" as="geometry" />
        </mxCell>
        <mxCell id="EHAL_HRxOUWWnRyOiAYp-19" value="" style="edgeStyle=orthogonalEdgeStyle;rounded=0;orthogonalLoop=1;jettySize=auto;html=1;" parent="1" source="EHAL_HRxOUWWnRyOiAYp-11" target="EHAL_HRxOUWWnRyOiAYp-18" edge="1">
          <mxGeometry relative="1" as="geometry" />
        </mxCell>
        <mxCell id="EHAL_HRxOUWWnRyOiAYp-29" value="" style="edgeStyle=orthogonalEdgeStyle;rounded=0;orthogonalLoop=1;jettySize=auto;html=1;" parent="1" source="EHAL_HRxOUWWnRyOiAYp-11" target="EHAL_HRxOUWWnRyOiAYp-28" edge="1">
          <mxGeometry relative="1" as="geometry" />
        </mxCell>
        <mxCell id="EHAL_HRxOUWWnRyOiAYp-11" value="Sprzedawca danego auta" style="shape=umlActor;verticalLabelPosition=bottom;verticalAlign=top;html=1;outlineConnect=0;" parent="1" vertex="1">
          <mxGeometry x="570" y="700" width="30" height="60" as="geometry" />
        </mxCell>
        <mxCell id="EHAL_HRxOUWWnRyOiAYp-12" value="Rezerwacja&amp;nbsp;&lt;br&gt;samochodu" style="ellipse;whiteSpace=wrap;html=1;verticalAlign=top;" parent="1" vertex="1">
          <mxGeometry x="430" y="-140" width="120" height="80" as="geometry" />
        </mxCell>
        <mxCell id="EHAL_HRxOUWWnRyOiAYp-14" value="Kupno &lt;br&gt;samochodu" style="ellipse;whiteSpace=wrap;html=1;verticalAlign=top;" parent="1" vertex="1">
          <mxGeometry x="430" y="40" width="120" height="80" as="geometry" />
        </mxCell>
        <mxCell id="EHAL_HRxOUWWnRyOiAYp-18" value="Dodanie&lt;br&gt;auta do katalogu&lt;br&gt;dostępnych samochodów" style="ellipse;whiteSpace=wrap;html=1;verticalAlign=top;" parent="1" vertex="1">
          <mxGeometry x="525" y="550" width="120" height="80" as="geometry" />
        </mxCell>
        <mxCell id="EHAL_HRxOUWWnRyOiAYp-20" value="Kontakt ze&lt;br&gt;sprzedającym" style="ellipse;whiteSpace=wrap;html=1;verticalAlign=top;" parent="1" vertex="1">
          <mxGeometry x="170" y="-220" width="120" height="80" as="geometry" />
        </mxCell>
        <mxCell id="EHAL_HRxOUWWnRyOiAYp-22" value="Filtrowanie aut" style="ellipse;whiteSpace=wrap;html=1;" parent="1" vertex="1">
          <mxGeometry x="135" y="90" width="120" height="80" as="geometry" />
        </mxCell>
        <mxCell id="EHAL_HRxOUWWnRyOiAYp-23" value="" style="endArrow=classic;html=1;exitX=0.7;exitY=0;exitDx=0;exitDy=0;exitPerimeter=0;" parent="1" source="EHAL_HRxOUWWnRyOiAYp-22" target="EHAL_HRxOUWWnRyOiAYp-9" edge="1">
          <mxGeometry width="50" height="50" relative="1" as="geometry">
            <mxPoint x="150" y="280" as="sourcePoint" />
            <mxPoint x="240" y="200" as="targetPoint" />
            <Array as="points" />
          </mxGeometry>
        </mxCell>
        <mxCell id="EHAL_HRxOUWWnRyOiAYp-26" value="Dodanie auta &lt;br&gt;do puli obserwowanych samochodów" style="ellipse;whiteSpace=wrap;html=1;" parent="1" vertex="1">
          <mxGeometry x="340" y="-220" width="120" height="80" as="geometry" />
        </mxCell>
        <mxCell id="EHAL_HRxOUWWnRyOiAYp-27" value="" style="endArrow=classic;html=1;exitX=1;exitY=0;exitDx=0;exitDy=0;" parent="1" source="EHAL_HRxOUWWnRyOiAYp-9" target="EHAL_HRxOUWWnRyOiAYp-26" edge="1">
          <mxGeometry width="50" height="50" relative="1" as="geometry">
            <mxPoint x="300" y="150" as="sourcePoint" />
            <mxPoint x="390" y="70" as="targetPoint" />
            <Array as="points" />
          </mxGeometry>
        </mxCell>
        <mxCell id="EHAL_HRxOUWWnRyOiAYp-28" value="Kontakt &lt;br&gt;do&lt;br&gt;kupującego" style="ellipse;whiteSpace=wrap;html=1;verticalAlign=top;" parent="1" vertex="1">
          <mxGeometry x="390" y="690" width="120" height="80" as="geometry" />
        </mxCell>
        <mxCell id="EHAL_HRxOUWWnRyOiAYp-34" value="" style="edgeStyle=orthogonalEdgeStyle;rounded=0;orthogonalLoop=1;jettySize=auto;html=1;" parent="1" source="EHAL_HRxOUWWnRyOiAYp-30" target="EHAL_HRxOUWWnRyOiAYp-33" edge="1">
          <mxGeometry relative="1" as="geometry" />
        </mxCell>
        <mxCell id="EHAL_HRxOUWWnRyOiAYp-30" value="Logowanie&amp;nbsp;&lt;br&gt;lub rejestracja&lt;br&gt;w serwisie" style="ellipse;whiteSpace=wrap;html=1;verticalAlign=top;" parent="1" vertex="1">
          <mxGeometry x="15" y="-30" width="120" height="80" as="geometry" />
        </mxCell>
        <mxCell id="EHAL_HRxOUWWnRyOiAYp-32" value="" style="endArrow=classic;html=1;" parent="1" source="EHAL_HRxOUWWnRyOiAYp-30" target="EHAL_HRxOUWWnRyOiAYp-9" edge="1">
          <mxGeometry width="50" height="50" relative="1" as="geometry">
            <mxPoint x="140" y="30" as="sourcePoint" />
            <mxPoint x="200" y="120" as="targetPoint" />
          </mxGeometry>
        </mxCell>
        <mxCell id="EHAL_HRxOUWWnRyOiAYp-33" value="Szybki &lt;br&gt;podgląd ofert obserwowanych" style="ellipse;whiteSpace=wrap;html=1;verticalAlign=top;" parent="1" vertex="1">
          <mxGeometry x="15" y="-190" width="120" height="80" as="geometry" />
        </mxCell>
        <mxCell id="EHAL_HRxOUWWnRyOiAYp-38" value="" style="edgeStyle=orthogonalEdgeStyle;rounded=0;orthogonalLoop=1;jettySize=auto;html=1;" parent="1" source="EHAL_HRxOUWWnRyOiAYp-35" target="EHAL_HRxOUWWnRyOiAYp-37" edge="1">
          <mxGeometry relative="1" as="geometry" />
        </mxCell>
        <mxCell id="EHAL_HRxOUWWnRyOiAYp-35" value="bez &lt;br&gt;logowania lub rejestracji" style="ellipse;whiteSpace=wrap;html=1;verticalAlign=top;" parent="1" vertex="1">
          <mxGeometry x="15" y="250" width="120" height="80" as="geometry" />
        </mxCell>
        <mxCell id="EHAL_HRxOUWWnRyOiAYp-37" value="przegląd samochodów używanych w ofercie salonu" style="ellipse;whiteSpace=wrap;html=1;verticalAlign=top;" parent="1" vertex="1">
          <mxGeometry x="190" y="310" width="120" height="80" as="geometry" />
        </mxCell>
        <mxCell id="EHAL_HRxOUWWnRyOiAYp-40" value="" style="edgeStyle=orthogonalEdgeStyle;rounded=0;orthogonalLoop=1;jettySize=auto;html=1;" parent="1" source="EHAL_HRxOUWWnRyOiAYp-39" target="EHAL_HRxOUWWnRyOiAYp-37" edge="1">
          <mxGeometry relative="1" as="geometry" />
        </mxCell>
        <mxCell id="EHAL_HRxOUWWnRyOiAYp-39" value="filtrowanie aut" style="ellipse;whiteSpace=wrap;html=1;" parent="1" vertex="1">
          <mxGeometry x="380" y="250" width="120" height="80" as="geometry" />
        </mxCell>
        <mxCell id="EHAL_HRxOUWWnRyOiAYp-42" value="" style="edgeStyle=orthogonalEdgeStyle;rounded=0;orthogonalLoop=1;jettySize=auto;html=1;" parent="1" source="EHAL_HRxOUWWnRyOiAYp-41" target="EHAL_HRxOUWWnRyOiAYp-37" edge="1">
          <mxGeometry relative="1" as="geometry">
            <Array as="points">
              <mxPoint x="340" y="390" />
              <mxPoint x="340" y="350" />
            </Array>
          </mxGeometry>
        </mxCell>
        <mxCell id="EHAL_HRxOUWWnRyOiAYp-41" value="sortowanie ofert" style="ellipse;whiteSpace=wrap;html=1;" parent="1" vertex="1">
          <mxGeometry x="390" y="350" width="120" height="80" as="geometry" />
        </mxCell>
        <mxCell id="EHAL_HRxOUWWnRyOiAYp-44" value="" style="endArrow=classic;html=1;entryX=0.042;entryY=0.35;entryDx=0;entryDy=0;entryPerimeter=0;exitX=0.967;exitY=0.738;exitDx=0;exitDy=0;exitPerimeter=0;" parent="1" source="EHAL_HRxOUWWnRyOiAYp-9" target="EHAL_HRxOUWWnRyOiAYp-14" edge="1">
          <mxGeometry width="50" height="50" relative="1" as="geometry">
            <mxPoint x="210" y="150" as="sourcePoint" />
            <mxPoint x="260" y="100" as="targetPoint" />
          </mxGeometry>
        </mxCell>
        <mxCell id="EHAL_HRxOUWWnRyOiAYp-46" value="" style="edgeStyle=orthogonalEdgeStyle;rounded=0;orthogonalLoop=1;jettySize=auto;html=1;" parent="1" source="EHAL_HRxOUWWnRyOiAYp-45" target="EHAL_HRxOUWWnRyOiAYp-9" edge="1">
          <mxGeometry relative="1" as="geometry" />
        </mxCell>
        <mxCell id="EHAL_HRxOUWWnRyOiAYp-45" value="sortowanie ofert" style="ellipse;whiteSpace=wrap;html=1;" parent="1" vertex="1">
          <mxGeometry x="270" y="90" width="120" height="80" as="geometry" />
        </mxCell>
        <mxCell id="EHAL_HRxOUWWnRyOiAYp-50" value="" style="edgeStyle=orthogonalEdgeStyle;rounded=0;orthogonalLoop=1;jettySize=auto;html=1;" parent="1" source="EHAL_HRxOUWWnRyOiAYp-47" target="EHAL_HRxOUWWnRyOiAYp-49" edge="1">
          <mxGeometry relative="1" as="geometry" />
        </mxCell>
        <mxCell id="EHAL_HRxOUWWnRyOiAYp-53" value="" style="edgeStyle=orthogonalEdgeStyle;rounded=0;orthogonalLoop=1;jettySize=auto;html=1;" parent="1" source="EHAL_HRxOUWWnRyOiAYp-47" target="EHAL_HRxOUWWnRyOiAYp-52" edge="1">
          <mxGeometry relative="1" as="geometry" />
        </mxCell>
        <mxCell id="EHAL_HRxOUWWnRyOiAYp-47" value="Moderator serwisu" style="shape=umlActor;verticalLabelPosition=bottom;verticalAlign=top;html=1;outlineConnect=0;" parent="1" vertex="1">
          <mxGeometry x="30" y="460" width="30" height="60" as="geometry" />
        </mxCell>
        <mxCell id="EHAL_HRxOUWWnRyOiAYp-49" value="usunięcie &lt;br&gt;dowolnej oferty z&lt;br&gt;katalogu dostępnych samochodów&amp;nbsp;" style="ellipse;whiteSpace=wrap;html=1;verticalAlign=top;" parent="1" vertex="1">
          <mxGeometry x="110" y="450" width="120" height="80" as="geometry" />
        </mxCell>
        <mxCell id="EHAL_HRxOUWWnRyOiAYp-52" value="kontakt z &lt;br&gt;każdym użytkownikiem" style="ellipse;whiteSpace=wrap;html=1;verticalAlign=top;" parent="1" vertex="1">
          <mxGeometry x="-15" y="590" width="120" height="80" as="geometry" />
        </mxCell>
        <mxCell id="EHAL_HRxOUWWnRyOiAYp-54" value="usuniecie&amp;nbsp;&lt;br&gt;konta uzytkownika" style="ellipse;whiteSpace=wrap;html=1;" parent="1" vertex="1">
          <mxGeometry x="135" y="560" width="120" height="80" as="geometry" />
        </mxCell>
        <mxCell id="EHAL_HRxOUWWnRyOiAYp-56" value="" style="endArrow=classic;html=1;exitX=1;exitY=1;exitDx=0;exitDy=0;exitPerimeter=0;" parent="1" source="EHAL_HRxOUWWnRyOiAYp-47" target="EHAL_HRxOUWWnRyOiAYp-54" edge="1">
          <mxGeometry width="50" height="50" relative="1" as="geometry">
            <mxPoint x="250" y="540" as="sourcePoint" />
            <mxPoint x="300" y="490" as="targetPoint" />
          </mxGeometry>
        </mxCell>
      </root>
    </mxGraphModel>
  </diagram>
</mxfile>
